<svg xmlns="http://www.w3.org/2000/svg" viewBox="0 0 349 295.76"><defs><style>.cls-1{fill:#fff0d9;}.cls-2{fill:#940731;}</style></defs><title>Recurso 10</title><g id="Capa_2" data-name="Capa 2"><g id="Capa_1-2" data-name="Capa 1"><path class="cls-1" d="M266.21,43.78c-13.4-11.21-26.95-22.5-42.14-30C197.25.62,167.27.22,138.16,0c-11.09-.08-22.37-.12-33,3.67-9.66,3.45-18.32,9.93-26.46,16.92C48.1,46.88,22.76,81.46,5.28,120.82,2.51,127.07-.13,133.73,0,140.76c.17,8.57,4.38,16.22,8.51,23.31,13.71,23.53,30,48.11,53.62,55.23,12.09,3.64,26,2.7,35.53,12,5.88,5.73,9,14.33,13.15,21.82,11.06,19.81,30.18,32,49.89,37.55s40.24,5.25,60.51,4.9c17.11-.29,34.49-.63,50.82-6.57,30.83-11.22,54.67-42,66.09-77.22,9.24-28.5,18.07-77.54,1.91-104.95C324.76,81,287.62,61.68,266.21,43.78Z"/><path class="cls-2" d="M79.36,125.46h6.32v.82H83.52l-.27.26v15.84l.27.27h2.16v.81h-8.4v-.81h2.25l.27-.27V129h-.27l-6.24,14.76h-.53l-6.09-15H66.4v13.73l.24.24H68.9v.81H62.51v-.81h2.16l.24-.24V126.52l-.24-.24H62.51v-.82H69l5,12.6h.24Z"/><path class="cls-2" d="M92.68,132a1.1,1.1,0,0,0-1.15.86l-.38,1.35-3,.28-.24-.24c.31-1.89,2.19-3.31,5-3.31,2.43,0,4.18.91,4,3.36l-.34,6.15c0,.91.19,1.29.72,1.29a2,2,0,0,0,1.25-.67l.29.77c-1.25,1.22-2,1.82-3.15,1.82a1.58,1.58,0,0,1-1.8-1.77v-.29h-.24a3.43,3.43,0,0,1-3,2.06,2.57,2.57,0,0,1-2.79-2.64c0-2.64,2.64-3.6,6-5V134.1C93.79,132.66,93.64,132,92.68,132Zm.87,4.94c-1.76,1-3,2.11-3,3.27,0,.86.53,1.24,1.34,1.24s1.88-.76,1.88-1.29v-3Z"/><path class="cls-2" d="M101.23,133.21,101,133l-1.3.56-.38-.82L104,131l.24.24-.17,1.83h.24a4,4,0,0,1,3.36-2.07,3,3,0,0,1,3.21,3.36v8.07l.24.24h1.49v.81h-5.95v-.81h1l.24-.24v-7.68c0-1.3-.63-1.78-1.63-1.78a2.38,2.38,0,0,0-2.07,1.25v8.21l.24.24h1v.81h-6.1v-.81H101l.24-.24Z"/><path class="cls-2" d="M121.91,141.64h-.24a4,4,0,0,1-3.36,2.06,3,3,0,0,1-3.21-3.36v-8.06l-.24-.24h-1.49v-.82h4.7V140c0,1.29.63,1.77,1.64,1.77a2.37,2.37,0,0,0,2.06-1.24v-8.21l-.24-.24H120v-.82h4.71v10.25l.24.24,1.29-.55.39.81L122,143.7l-.24-.24Z"/><path class="cls-2" d="M132.76,132a1.1,1.1,0,0,0-1.15.86l-.38,1.35-3,.28-.24-.24c.31-1.89,2.19-3.31,5-3.31,2.43,0,4.18.91,4,3.36l-.34,6.15c-.05.91.19,1.29.72,1.29a2,2,0,0,0,1.25-.67l.29.77c-1.25,1.22-1.95,1.82-3.15,1.82a1.58,1.58,0,0,1-1.8-1.77v-.29h-.24a3.43,3.43,0,0,1-3,2.06,2.57,2.57,0,0,1-2.79-2.64c0-2.64,2.64-3.6,6-5V134.1C133.87,132.66,133.72,132,132.76,132Zm.87,4.94c-1.76,1-3,2.11-3,3.27,0,.86.53,1.24,1.34,1.24s1.88-.76,1.88-1.29v-3Z"/><path class="cls-2" d="M141.31,127.48l-.24-.24-1.3.57-.38-.81,4.65-1.78.24.24v17l.24.24H146v.81h-6.58v-.81h1.64l.24-.24Z"/><path class="cls-2" d="M158.58,132a1.1,1.1,0,0,0-1.15.86l-.38,1.35-3,.28-.24-.24c.32-1.89,2.19-3.31,5-3.31,2.42,0,4.17.91,4,3.36l-.34,6.15c0,.91.2,1.29.72,1.29a2,2,0,0,0,1.25-.67l.29.77c-1.25,1.22-1.94,1.82-3.14,1.82a1.58,1.58,0,0,1-1.8-1.77v-.29h-.25a3.41,3.41,0,0,1-3,2.06,2.56,2.56,0,0,1-2.78-2.64c0-2.64,2.64-3.6,5.95-5V134.1C159.69,132.66,159.54,132,158.58,132Zm.87,4.94c-1.75,1-3,2.11-3,3.27,0,.86.53,1.24,1.35,1.24s1.87-.76,1.87-1.29v-3Z"/><path class="cls-2" d="M167.13,133.21l-.24-.24-1.3.56-.38-.82,4.68-1.73.24.24-.17,1.83h.24a4,4,0,0,1,3.36-2.07,3,3,0,0,1,3.22,3.36v8.07l.24.24h1.49v.81h-6v-.81h1l.24-.24v-7.68c0-1.3-.62-1.78-1.63-1.78a2.39,2.39,0,0,0-2.07,1.25v8.21l.24.24h1v.81h-6.09v-.81h1.63l.24-.24Z"/><path class="cls-2" d="M184,131.22h2.3v1H184v8.59c0,.77.24,1.25.81,1.25s1-.57,1.44-1.15l.39.82c-.58.67-1.61,2-3.17,2S181,142.93,181,141v-8.79h-1.49l-.24-.24,4.47-3.36H184Z"/><path class="cls-2" d="M189.3,133.24l-.24-.24-1.29.57-.39-.81L192,131l.24.24v11.19l.24.24H194v.81h-6.58v-.81h1.63l.24-.24Zm-.19-7.78h3.31v3.31h-3.31Z"/><path class="cls-2" d="M201.83,135.06v-.33a2.49,2.49,0,0,0-2.3-2.69,1.32,1.32,0,0,0-1.35,1.44,2.31,2.31,0,0,0,1.37,2.13c2.47,1.47,4.06,2.14,4.06,4.42s-1.63,3.67-3.94,3.67a10.14,10.14,0,0,1-3.07-.48h-.24v.48h-.86v-4.61h.86v.29c0,1.66,1,3.41,2.74,3.41a1.48,1.48,0,0,0,1.68-1.54c0-1.17-.77-1.77-2.19-2.56-1.8-1-3.05-2-3.05-4.25a3.38,3.38,0,0,1,3.6-3.46,6.46,6.46,0,0,1,2.45.48h.24V131h.87v4.08Z"/><path class="cls-2" d="M206.92,133.24l-.24-.24-1.3.57-.38-.81,4.66-1.78.24.24v11.19l.24.24h1.48v.81h-6.57v-.81h1.63l.24-.24Zm-.19-7.78H210v3.31h-3.31Z"/><path class="cls-2" d="M219.45,135.06v-.33a2.49,2.49,0,0,0-2.31-2.69,1.31,1.31,0,0,0-1.34,1.44,2.29,2.29,0,0,0,1.37,2.13c2.47,1.47,4.05,2.14,4.05,4.42s-1.63,3.67-3.93,3.67a10.14,10.14,0,0,1-3.07-.48H214v.48h-.87v-4.61H214v.29c0,1.66,1,3.41,2.73,3.41a1.48,1.48,0,0,0,1.68-1.54c0-1.17-.77-1.77-2.18-2.56-1.8-1-3.05-2-3.05-4.25a3.38,3.38,0,0,1,3.6-3.46,6.51,6.51,0,0,1,2.45.48h.24V131h.86v4.08Z"/><path class="cls-2" d="M227.08,131.22h2.3v1h-2.3v8.59c0,.77.24,1.25.82,1.25s1-.57,1.44-1.15l.38.82c-.58.67-1.61,2-3.17,2s-2.45-.77-2.45-2.73v-8.79h-1.48l-.24-.24,4.46-3.36h.24Z"/><path class="cls-2" d="M235.77,143.7c-3.12,0-5-2.45-5-6,0-3,1.73-6.72,5.33-6.72,2.11,0,4.56,1.06,4.56,4.8H233.1c0,.22,0,.43,0,.67,0,2.64,1.3,4.32,3.55,4.32a3.56,3.56,0,0,0,3.6-2.44l.58.33C240.62,140.39,239.42,143.7,235.77,143.7Zm-3.36-17.42,3-1.3,3.94,4.7-.58.34Zm.79,8.61,3.86-.12.24-.24c0-1.44-.33-2.49-1.63-2.49C234.62,132,233.56,132.9,233.2,134.89Z"/><path class="cls-2" d="M244.21,133.21,244,133l-1.29.56-.39-.82L247,131l.23.24-.16,1.83h.24A4.71,4.71,0,0,1,250.7,131a2.8,2.8,0,0,1,2.9,2.07h.26a4.71,4.71,0,0,1,3.41-2.07c1.78,0,3.07,1.11,3.07,3.36v8.07l.24.24h1.49v.81h-5.95v-.81h1l.24-.24v-7.68c0-1.25-.58-1.78-1.54-1.78a2.74,2.74,0,0,0-2.06,1.39v8.07l.24.24h1v.81h-5.48v-.81h1l.24-.24v-7.68c0-1.25-.57-1.78-1.54-1.78a2.74,2.74,0,0,0-2.06,1.39v8.07l.24.24h1v.81h-6.1v-.81H244l.24-.24Z"/><path class="cls-2" d="M265,133.24l-.24-.24-1.3.57-.38-.81,4.65-1.78.24.24v11.19l.24.24h1.49v.81h-6.57v-.81h1.63l.24-.24Zm-.19-7.78h3.31v3.31h-3.31Z"/><path class="cls-2" d="M280.94,134.49l-.25.24-3,.28-.48-1.82a1.22,1.22,0,0,0-1.3-1c-1.15,0-2.59,1.32-2.59,4.15s1.3,4.41,3.55,4.41a3.58,3.58,0,0,0,3.61-2.44l.57.33c-.19,1.73-1.39,5-5,5-3.26,0-5-2.45-5-6,0-3.17,1.73-6.72,5.33-6.72C279.23,131,280.6,132.61,280.94,134.49Z"/><path class="cls-2" d="M114.41,153.24l-1.29.57-.39-.81,4.66-1.78.24.24v16l.24.24,1.3-.55.38.81-4.68,1.73-.24-.24.17-1.82h-.24a4.08,4.08,0,0,1-3.31,2.06c-2.74,0-4.18-2.35-4.18-5.9,0-4.23,2.54-6.82,5.33-6.82a4.57,4.57,0,0,1,2.25.55v-4.05Zm-2.11,4.89c-1.49,0-2,1.68-2,3.94,0,2.88.71,5.66,2.59,5.66a1.9,1.9,0,0,0,1.77-1.34v-4.61C114.65,159.67,113.84,158.13,112.3,158.13Z"/><path class="cls-2" d="M125.84,169.7c-3.12,0-5-2.45-5-6,0-3,1.72-6.72,5.33-6.72,2.11,0,4.56,1.06,4.56,4.8h-7.52c0,.22,0,.43,0,.67,0,2.64,1.29,4.32,3.55,4.32a3.56,3.56,0,0,0,3.6-2.44l.58.33C130.69,166.39,129.49,169.7,125.84,169.7Zm-2.57-8.81,3.86-.12.24-.24c0-1.44-.33-2.49-1.63-2.49C124.69,158,123.63,158.9,123.27,160.89Z"/><path class="cls-2" d="M148.83,160.49l-.24.24-3,.28-.48-1.82a1.21,1.21,0,0,0-1.29-1c-1.15,0-2.59,1.32-2.59,4.15s1.29,4.41,3.55,4.41a3.57,3.57,0,0,0,3.6-2.44l.57.33c-.19,1.73-1.39,5-5,5-3.26,0-5-2.45-5-6,0-3.17,1.73-6.72,5.33-6.72C147.13,157,148.49,158.61,148.83,160.49Z"/><path class="cls-2" d="M152.09,159.24l-.24-.24-1.29.57-.39-.81,4.66-1.78.24.24-.48,2.74h.48c.33-1.39,1.25-2.79,2.54-2.88l1.25-.1.24.24-.38,2.59h-1.25c-1.49,0-2.11.29-2.4,1.49v7.11l.24.24h1.77v.81h-6.86v-.81h1.63l.24-.24Z"/><path class="cls-2" d="M164.67,169.7c-3.12,0-5-2.45-5-6,0-3,1.73-6.72,5.33-6.72,2.11,0,4.56,1.06,4.56,4.8H162c0,.22,0,.43,0,.67,0,2.64,1.3,4.32,3.55,4.32a3.56,3.56,0,0,0,3.6-2.44l.58.33C169.52,166.39,168.32,169.7,164.67,169.7Zm-2.57-8.81,3.86-.12.24-.24c0-1.44-.33-2.49-1.63-2.49C163.52,158,162.46,158.9,162.1,160.89Z"/><path class="cls-2" d="M176,158a1.1,1.1,0,0,0-1.15.86l-.38,1.35-3,.28-.24-.24c.32-1.89,2.19-3.31,5-3.31,2.42,0,4.17.91,4,3.36l-.34,6.15c-.05.91.2,1.29.72,1.29a2,2,0,0,0,1.25-.67l.29.77c-1.25,1.22-1.94,1.82-3.15,1.82a1.58,1.58,0,0,1-1.8-1.77v-.29H177a3.41,3.41,0,0,1-3,2.06,2.56,2.56,0,0,1-2.78-2.64c0-2.64,2.64-3.6,6-5V160.1C177.15,158.66,177,158,176,158Zm.87,4.94c-1.75,1-3,2.11-3,3.27,0,.86.53,1.24,1.35,1.24s1.87-.76,1.87-1.29v-3Z"/><path class="cls-2" d="M184.59,159.24l-.24-.24-1.3.57-.38-.81,4.65-1.78.24.24-.48,2.74h.48c.34-1.39,1.25-2.79,2.55-2.88l1.25-.1.24.24-.39,2.59H190c-1.48,0-2.11.29-2.4,1.49v7.11l.24.24h1.78v.81h-6.86v-.81h1.63l.24-.24Z"/><path class="cls-2" d="M204,169.7h-.72l-4.13-11.42-.24-.24h-1.06v-.82h6V158h-1.29l-.24.24,2.18,7.29h.24l2.76-7.29-.24-.24H206v-.82h4.17V158h-1l-.24.24Z"/><path class="cls-2" d="M212.38,159.24l-.24-.24-1.3.57-.38-.81,4.66-1.78.24.24v11.19l.24.24h1.48v.81h-6.57v-.81h1.63l.24-.24Zm-.19-7.78h3.31v3.31h-3.31Z"/><path class="cls-2" d="M225.68,153.24l-1.3.57L224,153l4.65-1.78.24.24v16l.24.24,1.3-.55.38.81-4.68,1.73-.24-.24.17-1.82h-.24a4.07,4.07,0,0,1-3.31,2.06c-2.74,0-4.18-2.35-4.18-5.9,0-4.23,2.55-6.82,5.33-6.82a4.64,4.64,0,0,1,2.26.55v-4.05Zm-2.12,4.89c-1.48,0-2,1.68-2,3.94,0,2.88.72,5.66,2.59,5.66a1.91,1.91,0,0,0,1.78-1.34v-4.61C225.92,159.67,225.1,158.13,223.56,158.13Z"/><path class="cls-2" d="M236.91,158a1.1,1.1,0,0,0-1.16.86l-.38,1.35-3,.28-.24-.24c.31-1.89,2.18-3.31,5-3.31,2.42,0,4.18.91,4,3.36l-.34,6.15c0,.91.2,1.29.73,1.29a2,2,0,0,0,1.24-.67l.29.77c-1.25,1.22-1.94,1.82-3.14,1.82a1.58,1.58,0,0,1-1.8-1.77v-.29h-.24a3.44,3.44,0,0,1-3,2.06,2.56,2.56,0,0,1-2.78-2.64c0-2.64,2.64-3.6,5.95-5V160.1C238,158.66,237.87,158,236.91,158Zm.86,4.94c-1.75,1-3,2.11-3,3.27,0,.86.53,1.24,1.35,1.24s1.87-.76,1.87-1.29v-3Z"/></g></g></svg>