<svg xmlns="http://www.w3.org/2000/svg" viewBox="0 0 349 296.66"><defs><style>.cls-1{fill:#fff0d9;}.cls-2{fill:#940731;}</style></defs><title>Recurso 8</title><g id="Capa_2" data-name="Capa 2"><g id="Capa_1-2" data-name="Capa 1"><path class="cls-1" d="M56.91,11.54C18.44,30.3-5.71,79.81,1.17,125.81S45.33,210,87.21,214c9.56.9,19.81.38,28,6,5.88,4.05,9.8,10.75,13.45,17.27,11.61,20.72,23.57,43,43.12,54.12s49,4.64,55.21-18.76c1.58-5.91,1.58-12.39,4.23-17.81,4.83-9.87,16.68-12.63,26.71-11.08s19.56,6.25,29.66,7c16.8,1.23,33.17-9.06,43.51-23.79s15.27-33.38,17.16-51.93c1.4-13.68,1.21-27.86-3-40.8-5.13-15.67-15.72-28.25-26.05-40.36C285.75,54.65,247.89,13,199.5,8.13,154.42,3.61,99.73-9.35,56.91,11.54Z"/><path class="cls-2" d="M79,114.31h6.32v.82H83.16l-.27.26v15.84l.27.26h2.16v.82h-8.4v-.82h2.25l.27-.26V117.81h-.27l-6.24,14.76H72.4l-6.09-15H66v13.73l.24.23h2.26v.82H62.15v-.82h2.17l.24-.23V115.37l-.24-.24H62.15v-.82h6.53l5,12.6h.24Z"/><path class="cls-2" d="M92.32,120.89a1.1,1.1,0,0,0-1.15.86l-.38,1.34-3,.29-.24-.24c.31-1.89,2.19-3.31,5-3.31,2.42,0,4.17.91,4,3.36l-.34,6.14c0,.92.19,1.3.72,1.3a2,2,0,0,0,1.25-.67l.29.77c-1.25,1.22-2,1.82-3.15,1.82a1.59,1.59,0,0,1-1.8-1.78v-.28h-.24a3.41,3.41,0,0,1-3,2.06,2.56,2.56,0,0,1-2.78-2.64c0-2.64,2.64-3.6,6-5V123C93.43,121.51,93.28,120.89,92.32,120.89Zm.87,4.94c-1.75,1-3,2.11-3,3.26,0,.87.53,1.25,1.35,1.25s1.87-.77,1.87-1.29v-3Z"/><path class="cls-2" d="M100.87,122.06l-.24-.24-1.3.55-.38-.81,4.68-1.73.24.24-.17,1.82h.24a4,4,0,0,1,3.36-2.06,3,3,0,0,1,3.22,3.36v8.07l.24.23h1.48v.82h-5.95v-.82h1l.24-.23v-7.69c0-1.29-.62-1.77-1.63-1.77a2.39,2.39,0,0,0-2.07,1.25v8.21l.24.23h1v.82H99v-.82h1.64l.24-.23Z"/><path class="cls-2" d="M121.56,130.49h-.24a4,4,0,0,1-3.36,2.06,3,3,0,0,1-3.22-3.36v-8.06l-.24-.24H113v-.82h4.7v8.74c0,1.29.63,1.77,1.64,1.77a2.38,2.38,0,0,0,2.06-1.25v-8.2l-.24-.24h-1.49v-.82h4.71v10.25l.24.24,1.29-.55.39.81-4.68,1.73-.24-.24Z"/><path class="cls-2" d="M132.4,120.89a1.1,1.1,0,0,0-1.15.86l-.38,1.34-3,.29-.24-.24c.31-1.89,2.19-3.31,5-3.31,2.43,0,4.18.91,4,3.36l-.34,6.14c0,.92.19,1.3.72,1.3a2,2,0,0,0,1.25-.67l.29.77c-1.25,1.22-2,1.82-3.15,1.82a1.59,1.59,0,0,1-1.8-1.78v-.28h-.24a3.42,3.42,0,0,1-3,2.06,2.57,2.57,0,0,1-2.79-2.64c0-2.64,2.64-3.6,6-5V123C133.51,121.51,133.36,120.89,132.4,120.89Zm.87,4.94c-1.76,1-3,2.11-3,3.26,0,.87.53,1.25,1.34,1.25s1.88-.77,1.88-1.29v-3Z"/><path class="cls-2" d="M141,116.33l-.24-.24-1.3.57-.38-.82,4.65-1.77.24.24v16.95l.24.23h1.49v.82h-6.58v-.82h1.64l.24-.23Z"/><path class="cls-2" d="M158.23,120.89a1.1,1.1,0,0,0-1.16.86l-.38,1.34-3,.29-.24-.24c.31-1.89,2.18-3.31,5-3.31,2.42,0,4.17.91,4,3.36l-.34,6.14c0,.92.2,1.3.72,1.3a2,2,0,0,0,1.25-.67l.29.77c-1.25,1.22-1.94,1.82-3.14,1.82a1.58,1.58,0,0,1-1.8-1.78v-.28h-.24a3.44,3.44,0,0,1-3,2.06,2.56,2.56,0,0,1-2.78-2.64c0-2.64,2.64-3.6,6-5V123C159.33,121.51,159.19,120.89,158.23,120.89Zm.86,4.94c-1.75,1-3,2.11-3,3.26,0,.87.53,1.25,1.35,1.25s1.87-.77,1.87-1.29v-3Z"/><path class="cls-2" d="M166.77,122.06l-.24-.24-1.3.55-.38-.81,4.68-1.73.24.24-.17,1.82h.24a4,4,0,0,1,3.36-2.06,3,3,0,0,1,3.22,3.36v8.07l.24.23h1.49v.82h-6v-.82h1l.24-.23v-7.69c0-1.29-.62-1.77-1.63-1.77a2.36,2.36,0,0,0-2.06,1.25v8.21l.24.23h1v.82H164.9v-.82h1.63l.24-.23Z"/><path class="cls-2" d="M183.62,120.07h2.3v1h-2.3v8.59c0,.77.24,1.25.81,1.25s1-.58,1.44-1.15l.39.81c-.58.68-1.61,2-3.17,2s-2.45-.77-2.45-2.74V121h-1.49l-.24-.24,4.47-3.36h.24Z"/><path class="cls-2" d="M189,122.09l-.24-.24-1.3.57-.38-.81,4.65-1.78.24.24v11.19l.24.23h1.49v.82h-6.58v-.82h1.64l.24-.23Zm-.2-7.78h3.32v3.31h-3.32Z"/><path class="cls-2" d="M201.47,123.91v-.34a2.48,2.48,0,0,0-2.3-2.68,1.3,1.3,0,0,0-1.34,1.44,2.3,2.3,0,0,0,1.36,2.13c2.48,1.47,4.06,2.14,4.06,4.42s-1.63,3.67-3.94,3.67a10.14,10.14,0,0,1-3.07-.48H196v.48h-.86v-4.61H196v.29c0,1.66,1,3.41,2.74,3.41a1.48,1.48,0,0,0,1.68-1.54c0-1.17-.77-1.77-2.19-2.57-1.8-1-3-2-3-4.24a3.38,3.38,0,0,1,3.6-3.46,6.45,6.45,0,0,1,2.44.48h.24v-.48h.87v4.08Z"/><path class="cls-2" d="M206.56,122.09l-.24-.24-1.3.57-.38-.81,4.66-1.78.24.24v11.19l.24.23h1.49v.82h-6.58v-.82h1.63l.24-.23Zm-.19-7.78h3.31v3.31h-3.31Z"/><path class="cls-2" d="M219.09,123.91v-.34a2.48,2.48,0,0,0-2.31-2.68,1.31,1.31,0,0,0-1.34,1.44,2.29,2.29,0,0,0,1.37,2.13c2.47,1.47,4.06,2.14,4.06,4.42s-1.64,3.67-3.94,3.67a10.14,10.14,0,0,1-3.07-.48h-.24v.48h-.87v-4.61h.87v.29c0,1.66,1,3.41,2.73,3.41A1.48,1.48,0,0,0,218,130.1c0-1.17-.76-1.77-2.18-2.57-1.8-1-3-2-3-4.24a3.38,3.38,0,0,1,3.6-3.46,6.51,6.51,0,0,1,2.45.48h.24v-.48H220v4.08Z"/><path class="cls-2" d="M226.72,120.07H229v1h-2.3v8.59c0,.77.24,1.25.82,1.25s1-.58,1.44-1.15l.38.81c-.58.68-1.61,2-3.17,2s-2.45-.77-2.45-2.74V121h-1.48l-.24-.24,4.46-3.36h.24Z"/><path class="cls-2" d="M235.41,132.55c-3.12,0-5-2.45-5-6,0-3,1.73-6.72,5.33-6.72,2.11,0,4.56,1.06,4.56,4.8h-7.52c0,.22,0,.43,0,.67,0,2.64,1.3,4.32,3.55,4.32a3.55,3.55,0,0,0,3.6-2.45l.58.34C240.26,129.24,239.06,132.55,235.41,132.55Zm-3.36-17.42,3-1.3,3.94,4.7-.58.34Zm.79,8.61,3.86-.12.24-.24c0-1.44-.33-2.49-1.63-2.49C234.26,120.89,233.2,121.75,232.84,123.74Z"/><path class="cls-2" d="M243.86,122.06l-.24-.24-1.3.55-.38-.81,4.68-1.73.24.24-.17,1.82h.24a4.74,4.74,0,0,1,3.41-2.06,2.8,2.8,0,0,1,2.9,2.06h.26a4.74,4.74,0,0,1,3.41-2.06c1.78,0,3.08,1.1,3.08,3.36v8.07l.24.23h1.48v.82h-5.95v-.82h1l.24-.23v-7.69c0-1.24-.58-1.77-1.54-1.77a2.74,2.74,0,0,0-2.06,1.39v8.07l.24.23h1v.82h-5.48v-.82h1l.24-.23v-7.69c0-1.24-.57-1.77-1.53-1.77a2.75,2.75,0,0,0-2.07,1.39v8.07l.24.23h1v.82H242v-.82h1.64l.24-.23Z"/><path class="cls-2" d="M264.64,122.09l-.24-.24-1.3.57-.38-.81,4.66-1.78.24.24v11.19l.24.23h1.48v.82h-6.57v-.82h1.63l.24-.23Zm-.19-7.78h3.31v3.31h-3.31Z"/><path class="cls-2" d="M280.58,123.33l-.24.24-3,.29-.48-1.82a1.21,1.21,0,0,0-1.29-1c-1.16,0-2.6,1.32-2.6,4.16s1.3,4.41,3.56,4.41a3.56,3.56,0,0,0,3.6-2.45l.57.34c-.19,1.73-1.39,5-5,5-3.26,0-5-2.45-5-6,0-3.17,1.73-6.72,5.33-6.72C278.87,119.83,280.24,121.46,280.58,123.33Z"/><path class="cls-2" d="M27,142.09l-1.29.57-.39-.82L30,140.07l.24.24v16l.24.24,1.29-.55.39.81-4.68,1.73-.24-.24.17-1.82h-.24a4.09,4.09,0,0,1-3.32,2.06c-2.73,0-4.17-2.35-4.17-5.9,0-4.23,2.54-6.82,5.33-6.82a4.6,4.6,0,0,1,2.25.55v-4ZM24.92,147c-1.49,0-2,1.68-2,3.94,0,2.88.72,5.66,2.6,5.66a1.9,1.9,0,0,0,1.77-1.34v-4.61C27.27,148.52,26.46,147,24.92,147Z"/><path class="cls-2" d="M38.46,158.55c-3.13,0-5-2.45-5-6,0-3,1.72-6.72,5.32-6.72,2.12,0,4.56,1.06,4.56,4.8H35.79c0,.22,0,.43,0,.67,0,2.64,1.29,4.32,3.55,4.32a3.56,3.56,0,0,0,3.6-2.45l.58.34C43.3,155.24,42.1,158.55,38.46,158.55Zm-2.57-8.81,3.86-.12.24-.24c0-1.44-.33-2.49-1.63-2.49C37.3,146.89,36.25,147.75,35.89,149.74Z"/><path class="cls-2" d="M61.45,149.33l-.24.24-3,.29L57.7,148a1.21,1.21,0,0,0-1.29-1c-1.16,0-2.6,1.32-2.6,4.16s1.3,4.41,3.56,4.41a3.56,3.56,0,0,0,3.6-2.45l.57.34c-.19,1.73-1.39,5-5,5-3.26,0-5-2.45-5-6,0-3.17,1.73-6.72,5.33-6.72C59.74,145.83,61.11,147.46,61.45,149.33Z"/><path class="cls-2" d="M68.84,145.83c3.46,0,5.81,2.62,5.81,6.31s-2.31,6.41-5.81,6.41S63,155.93,63,152.19C63,148.61,65.33,145.83,68.84,145.83Zm.43,11.57c1.59,0,2-2,2-4.06,0-3.45-.79-6.36-2.88-6.36-1.59,0-2,2-2,4C66.39,154.49,67.21,157.4,69.27,157.4Z"/><path class="cls-2" d="M78.06,148.06l-.25-.24-1.29.55-.39-.81,4.69-1.73.24.24-.17,1.82h.24a4.74,4.74,0,0,1,3.41-2.06,2.8,2.8,0,0,1,2.9,2.06h.26a4.74,4.74,0,0,1,3.41-2.06c1.78,0,3.07,1.1,3.07,3.36v8.07l.24.23h1.49v.82H90v-.82h1l.24-.23v-7.69c0-1.24-.58-1.77-1.54-1.77a2.74,2.74,0,0,0-2.06,1.39v8.07l.24.23h1v.82H83.38v-.82h1l.24-.23v-7.69c0-1.24-.57-1.77-1.53-1.77A2.75,2.75,0,0,0,81,149.19v8.07l.24.23h1v.82h-6.1v-.82h1.63l.25-.23Z"/><path class="cls-2" d="M98.6,148.06l-.24-.24-1.3.55-.38-.81,4.68-1.73.24.24-.17,1.82h.24a4.18,4.18,0,0,1,3.55-2.06c2.5,0,3.94,2.59,3.94,6.14,0,4.23-2.54,6.58-5.33,6.58a4.64,4.64,0,0,1-2.26-.55v5.26l.24.24h2v.81h-7v-.81h1.63l.24-.24Zm5.33,9.34c1.49,0,2-1.68,2-3.94,0-2.88-.72-5.66-2.59-5.66a1.91,1.91,0,0,0-1.78,1.34v4.61C101.57,155.86,102.39,157.4,103.93,157.4Z"/><path class="cls-2" d="M115.73,146.89a1.1,1.1,0,0,0-1.15.86l-.38,1.34-3,.29-.24-.24c.32-1.89,2.19-3.31,5-3.31,2.42,0,4.17.91,4,3.36l-.34,6.14c0,.92.2,1.3.72,1.3a2,2,0,0,0,1.25-.67l.29.77c-1.25,1.22-1.94,1.82-3.14,1.82a1.58,1.58,0,0,1-1.8-1.78v-.28h-.25a3.41,3.41,0,0,1-3,2.06,2.56,2.56,0,0,1-2.78-2.64c0-2.64,2.64-3.6,6-5V149C116.84,147.51,116.69,146.89,115.73,146.89Zm.87,4.94c-1.75,1-3,2.11-3,3.26,0,.87.53,1.25,1.35,1.25s1.87-.77,1.87-1.29v-3Z"/><path class="cls-2" d="M124.28,148.09l-.24-.24-1.3.57-.38-.81,4.65-1.78.24.24-.48,2.74h.48c.34-1.4,1.25-2.79,2.55-2.88l1.25-.1.24.24-.39,2.59h-1.25c-1.48,0-2.11.29-2.4,1.49v7.11l.24.23h1.78v.82h-6.86v-.82H124l.24-.23Z"/><path class="cls-2" d="M136.52,146.07h2.3v1h-2.3v8.59c0,.77.24,1.25.81,1.25s1-.58,1.44-1.15l.39.81c-.58.68-1.61,2-3.17,2s-2.45-.77-2.45-2.74V147h-1.49l-.24-.24,4.47-3.36h.24Z"/><path class="cls-2" d="M141.85,148.09l-.24-.24-1.3.57-.38-.81,4.65-1.78.24.24v11.19l.24.23h1.49v.82H140v-.82h1.64l.24-.23Zm-.2-7.78H145v3.31h-3.32Z"/><path class="cls-2" d="M149.48,148.09l-.24-.24-1.3.57-.38-.81,4.65-1.78.24.24-.48,2.74h.48c.34-1.4,1.25-2.79,2.55-2.88l1.25-.1.24.24-.39,2.59h-1.25c-1.48,0-2.11.29-2.4,1.49v7.11l.24.23h1.78v.82h-6.86v-.82h1.63l.24-.23Z"/><path class="cls-2" d="M170.31,149.91v-.34a2.48,2.48,0,0,0-2.3-2.68,1.31,1.31,0,0,0-1.35,1.44,2.29,2.29,0,0,0,1.37,2.13c2.47,1.47,4.06,2.14,4.06,4.42s-1.64,3.67-3.94,3.67a10.14,10.14,0,0,1-3.07-.48h-.24v.48H164v-4.61h.87v.29c0,1.66,1,3.41,2.73,3.41a1.48,1.48,0,0,0,1.68-1.54c0-1.17-.76-1.77-2.18-2.57-1.8-1-3-2-3-4.24a3.38,3.38,0,0,1,3.6-3.46,6.46,6.46,0,0,1,2.45.48h.24v-.48h.86v4.08Z"/><path class="cls-2" d="M178.56,146.89a1.1,1.1,0,0,0-1.15.86l-.38,1.34-3,.29-.24-.24c.32-1.89,2.19-3.31,5-3.31,2.42,0,4.17.91,4,3.36l-.34,6.14c0,.92.2,1.3.72,1.3a2,2,0,0,0,1.25-.67l.29.77c-1.25,1.22-1.94,1.82-3.14,1.82a1.58,1.58,0,0,1-1.8-1.78v-.28h-.25a3.41,3.41,0,0,1-3,2.06,2.56,2.56,0,0,1-2.78-2.64c0-2.64,2.64-3.6,5.95-5V149C179.67,147.51,179.52,146.89,178.56,146.89Zm.87,4.94c-1.75,1-3,2.11-3,3.26,0,.87.53,1.25,1.35,1.25s1.87-.77,1.87-1.29v-3Z"/><path class="cls-2" d="M187.59,156.53v2h-1V142.33l-.24-.24-1.3.57-.38-.82,4.65-1.77.24.24v7.54h.24a4,4,0,0,1,3.41-2c2.5,0,3.94,2.59,3.94,6.14,0,4.23-2.54,6.58-5.33,6.58a5.21,5.21,0,0,1-4-2Zm4.37.87c1.49,0,2-1.68,2-3.94,0-2.88-.72-5.66-2.4-5.66a2,2,0,0,0-2,1.34v4.61C189.6,155.86,190.42,157.4,192,157.4Z"/><path class="cls-2" d="M200.6,148.09l-.24-.24-1.3.57-.38-.81,4.65-1.78.24.24v11.19l.24.23h1.49v.82h-6.58v-.82h1.64l.24-.23Zm-.2-7.78h3.32v3.31H200.4Z"/><path class="cls-2" d="M211.59,158.55c-3.12,0-5-2.45-5-6,0-3,1.73-6.72,5.33-6.72,2.11,0,4.56,1.06,4.56,4.8h-7.52c0,.22,0,.43,0,.67,0,2.64,1.3,4.32,3.55,4.32a3.55,3.55,0,0,0,3.6-2.45l.58.34C216.44,155.24,215.24,158.55,211.59,158.55ZM209,149.74l3.86-.12.24-.24c0-1.44-.33-2.49-1.63-2.49C210.44,146.89,209.38,147.75,209,149.74Z"/><path class="cls-2" d="M224.93,149.91v-.34a2.48,2.48,0,0,0-2.3-2.68,1.31,1.31,0,0,0-1.35,1.44,2.31,2.31,0,0,0,1.37,2.13c2.48,1.47,4.06,2.14,4.06,4.42s-1.63,3.67-3.94,3.67a10.14,10.14,0,0,1-3.07-.48h-.24v.48h-.86v-4.61h.86v.29c0,1.66,1,3.41,2.74,3.41a1.48,1.48,0,0,0,1.68-1.54c0-1.17-.77-1.77-2.19-2.57-1.8-1-3.05-2-3.05-4.24a3.38,3.38,0,0,1,3.6-3.46,6.46,6.46,0,0,1,2.45.48h.24v-.48h.87v4.08Z"/><path class="cls-2" d="M233.19,146.89a1.09,1.09,0,0,0-1.15.86l-.39,1.34-3,.29-.24-.24c.31-1.89,2.18-3.31,5-3.31,2.42,0,4.18.91,4,3.36l-.33,6.14c-.05.92.19,1.3.72,1.3A2,2,0,0,0,239,156l.29.77c-1.25,1.22-1.94,1.82-3.14,1.82a1.58,1.58,0,0,1-1.8-1.78v-.28h-.24a3.44,3.44,0,0,1-3,2.06,2.56,2.56,0,0,1-2.78-2.64c0-2.64,2.64-3.6,5.95-5V149C234.29,147.51,234.15,146.89,233.19,146.89Zm.86,4.94c-1.75,1-3,2.11-3,3.26,0,.87.52,1.25,1.34,1.25s1.87-.77,1.87-1.29v-3Z"/><path class="cls-2" d="M247.73,148.06l-.24-.24-1.29.55-.39-.81,4.68-1.73.24.24-.17,1.82h.24a4.21,4.21,0,0,1,3.56-2.06c2.49,0,3.93,2.59,3.93,6.14,0,4.23-2.54,6.58-5.33,6.58a4.6,4.6,0,0,1-2.25-.55v5.26l.24.24h2v.81h-7.06v-.81h1.63l.24-.24Zm5.33,9.34c1.49,0,2-1.68,2-3.94,0-2.88-.72-5.66-2.6-5.66a1.9,1.9,0,0,0-1.77,1.34v4.61C250.71,155.86,251.52,157.4,253.06,157.4Z"/><path class="cls-2" d="M265.83,145.83c3.45,0,5.81,2.62,5.81,6.31s-2.31,6.41-5.81,6.41-5.81-2.62-5.81-6.36C260,148.61,262.32,145.83,265.83,145.83Zm.43,11.57c1.58,0,2-2,2-4.06,0-3.45-.8-6.36-2.88-6.36-1.59,0-2,2-2,4C263.38,154.49,264.2,157.4,266.26,157.4Z"/><path class="cls-2" d="M274.8,148.06l-.24-.24-1.29.55-.39-.81,4.68-1.73.24.24-.16,1.82h.24a4.18,4.18,0,0,1,3.55-2.06c2.49,0,3.93,2.59,3.93,6.14,0,4.23-2.54,6.58-5.32,6.58a4.64,4.64,0,0,1-2.26-.55v5.26l.24.24h2v.81h-7.06v-.81h1.63l.24-.24Zm5.33,9.34c1.49,0,2-1.68,2-3.94,0-2.88-.72-5.66-2.59-5.66a1.9,1.9,0,0,0-1.78,1.34v4.61C277.78,155.86,278.6,157.4,280.13,157.4Z"/><path class="cls-2" d="M295.16,156.49h-.24a4,4,0,0,1-3.36,2.06,3,3,0,0,1-3.22-3.36v-8.06l-.24-.24h-1.49v-.82h4.7v8.74c0,1.29.63,1.77,1.64,1.77a2.38,2.38,0,0,0,2.06-1.25v-8.2l-.24-.24h-1.49v-.82H298v10.25l.24.24,1.29-.55.39.81-4.68,1.73-.24-.24Z"/><path class="cls-2" d="M302.84,142.33l-.24-.24-1.3.57-.38-.82,4.65-1.77.24.24v16.95l.24.23h1.49v.82H301v-.82h1.64l.24-.23Z"/><path class="cls-2" d="M313.88,146.89a1.1,1.1,0,0,0-1.16.86l-.38,1.34-3,.29-.24-.24c.32-1.89,2.19-3.31,5-3.31,2.42,0,4.17.91,4,3.36l-.34,6.14c0,.92.2,1.3.72,1.3a2,2,0,0,0,1.25-.67l.29.77c-1.25,1.22-1.94,1.82-3.14,1.82a1.58,1.58,0,0,1-1.8-1.78v-.28h-.25a3.41,3.41,0,0,1-3,2.06,2.56,2.56,0,0,1-2.78-2.64c0-2.64,2.64-3.6,6-5V149C315,147.51,314.83,146.89,313.88,146.89Zm.86,4.94c-1.75,1-3,2.11-3,3.26,0,.87.53,1.25,1.35,1.25s1.87-.77,1.87-1.29v-3Z"/><path class="cls-2" d="M322.42,148.09l-.24-.24-1.3.57-.38-.81,4.65-1.78.24.24-.48,2.74h.48c.34-1.4,1.25-2.79,2.55-2.88l1.25-.1.24.24-.39,2.59h-1.25c-1.48,0-2.11.29-2.4,1.49v7.11l.24.23h1.78v.82h-6.86v-.82h1.63l.24-.23Z"/></g></g></svg>