<svg xmlns="http://www.w3.org/2000/svg" viewBox="0 0 349.96 296.78"><defs><style>.cls-1{fill:#fff0d9;}.cls-2{fill:#940731;}</style></defs><title>Recurso 9</title><g id="Capa_2" data-name="Capa 2"><g id="Capa_1-2" data-name="Capa 1"><path class="cls-1" d="M11.39,95.59C7.88,104.92,7,115.21,6.08,125.31L.77,186.23C0,194.84-.72,203.69,1.35,212,4.4,224.28,13,233.56,21.25,242.19,35.39,257,49.9,272.08,67.54,280.78s39.31,10,55.22-2.31c7.57-5.84,13.85-14.61,22.75-17,11.94-3.16,23.25,6.27,33.69,13.58A120.36,120.36,0,0,0,315,276.5c14.78-9.94,28.4-24.24,33.11-43s-.12-38.66-6.33-56.75c-22.22-64.67-63.39-120.7-115.41-157C213.7,10.86,200.11,3,185.4.78,142.32-5.83,122,31.34,88.5,50.05,61.31,65.23,26,56.74,11.39,95.59Z"/><path class="cls-2" d="M64.86,130h6.31v.81H69l-.26.27v15.84l.26.26h2.16V148h-8.4v-.82H65l.26-.26V133.47H65l-6.24,14.76h-.53l-6.1-15H51.9v13.73l.24.24h2.25V148H48v-.82h2.16l.24-.24V131l-.24-.24H48V130h6.53l5,12.6h.24Z"/><path class="cls-2" d="M78.18,136.54a1.09,1.09,0,0,0-1.15.87l-.39,1.34-3,.29-.24-.24c.31-1.9,2.18-3.31,5-3.31,2.42,0,4.18.91,4,3.36L82.07,145c0,.91.19,1.3.72,1.3a2.07,2.07,0,0,0,1.25-.67l.28.76c-1.24,1.23-1.94,1.83-3.14,1.83a1.58,1.58,0,0,1-1.8-1.78v-.29h-.24a3.43,3.43,0,0,1-3,2.07,2.56,2.56,0,0,1-2.78-2.64c0-2.64,2.64-3.6,6-5v-1.92C79.28,137.17,79.14,136.54,78.18,136.54Zm.86,5c-1.75,1-3,2.11-3,3.26,0,.87.52,1.25,1.34,1.25s1.87-.77,1.87-1.3v-3Z"/><path class="cls-2" d="M86.72,137.72l-.24-.24-1.29.55-.39-.81,4.68-1.73.24.24-.17,1.82h.24a4,4,0,0,1,3.37-2.06,3,3,0,0,1,3.21,3.36v8.06l.24.24H98.1V148H92.15v-.82h1l.24-.24v-7.68c0-1.29-.63-1.77-1.64-1.77a2.37,2.37,0,0,0-2.06,1.24v8.21l.24.24h1V148h-6.1v-.82h1.63l.24-.24Z"/><path class="cls-2" d="M107.41,146.14h-.24a4,4,0,0,1-3.36,2.07,3,3,0,0,1-3.22-3.36v-8.07l-.24-.24H98.87v-.81h4.7v8.73c0,1.3.62,1.78,1.63,1.78a2.39,2.39,0,0,0,2.07-1.25v-8.21l-.24-.24h-1.49v-.81h4.7V146l.24.24,1.3-.56.38.82-4.68,1.73-.24-.24Z"/><path class="cls-2" d="M118.26,136.54a1.09,1.09,0,0,0-1.15.87l-.39,1.34-3,.29-.24-.24c.31-1.9,2.18-3.31,5-3.31,2.42,0,4.18.91,4,3.36l-.33,6.14c-.05.91.19,1.3.72,1.3a2,2,0,0,0,1.24-.67l.29.76c-1.24,1.23-1.94,1.83-3.14,1.83a1.58,1.58,0,0,1-1.8-1.78v-.29h-.24a3.43,3.43,0,0,1-3,2.07,2.56,2.56,0,0,1-2.78-2.64c0-2.64,2.64-3.6,6-5v-1.92C119.36,137.17,119.22,136.54,118.26,136.54Zm.86,5c-1.75,1-3,2.11-3,3.26,0,.87.52,1.25,1.34,1.25s1.87-.77,1.87-1.3v-3Z"/><path class="cls-2" d="M126.8,132l-.24-.24-1.29.58-.39-.82,4.66-1.77.24.24v16.94l.24.24h1.49V148h-6.58v-.82h1.63l.24-.24Z"/><path class="cls-2" d="M144.08,136.54a1.1,1.1,0,0,0-1.15.87l-.38,1.34-3,.29-.24-.24c.31-1.9,2.19-3.31,5-3.31,2.43,0,4.18.91,4,3.36L148,145c-.05.91.19,1.3.72,1.3a2,2,0,0,0,1.25-.67l.29.76c-1.25,1.23-1.95,1.83-3.15,1.83a1.59,1.59,0,0,1-1.8-1.78v-.29H145a3.42,3.42,0,0,1-3,2.07,2.57,2.57,0,0,1-2.79-2.64c0-2.64,2.64-3.6,6-5v-1.92C145.19,137.17,145,136.54,144.08,136.54Zm.87,5c-1.76,1-3,2.11-3,3.26,0,.87.53,1.25,1.34,1.25s1.88-.77,1.88-1.3v-3Z"/><path class="cls-2" d="M152.63,137.72l-.24-.24-1.3.55-.39-.81,4.69-1.73.24.24-.17,1.82h.24a4,4,0,0,1,3.36-2.06,3,3,0,0,1,3.21,3.36v8.06l.24.24H164V148h-5.95v-.82h1l.24-.24v-7.68c0-1.29-.63-1.77-1.64-1.77a2.37,2.37,0,0,0-2.06,1.24v8.21l.24.24h1V148h-6.1v-.82h1.64l.24-.24Z"/><path class="cls-2" d="M169.47,135.73h2.31v1h-2.31v8.59c0,.77.24,1.25.82,1.25s1-.58,1.44-1.15l.38.81c-.57.67-1.61,2-3.16,2s-2.45-.77-2.45-2.74v-8.78H165l-.24-.24,4.46-3.36h.24Z"/><path class="cls-2" d="M174.8,137.74l-.24-.24-1.3.58-.38-.82,4.66-1.77.24.24v11.18l.24.24h1.48V148h-6.57v-.82h1.63l.24-.24Zm-.19-7.77h3.31v3.31h-3.31Z"/><path class="cls-2" d="M187.33,139.57v-.34a2.49,2.49,0,0,0-2.31-2.69,1.31,1.31,0,0,0-1.34,1.44,2.31,2.31,0,0,0,1.37,2.14c2.47,1.46,4.06,2.14,4.06,4.42s-1.64,3.67-3.94,3.67a10.48,10.48,0,0,1-3.07-.48h-.24v.48H181V143.6h.87v.29c0,1.65,1,3.41,2.73,3.41a1.48,1.48,0,0,0,1.68-1.54c0-1.18-.77-1.78-2.18-2.57-1.8-1-3.05-2-3.05-4.25a3.37,3.37,0,0,1,3.6-3.45,6.31,6.31,0,0,1,2.45.48h.24v-.48h.86v4.08Z"/><path class="cls-2" d="M192.42,137.74l-.24-.24-1.3.58-.38-.82,4.65-1.77.24.24v11.18l.24.24h1.49V148h-6.58v-.82h1.64l.24-.24Zm-.2-7.77h3.32v3.31h-3.32Z"/><path class="cls-2" d="M204.94,139.57v-.34a2.49,2.49,0,0,0-2.3-2.69A1.31,1.31,0,0,0,201.3,138a2.31,2.31,0,0,0,1.36,2.14c2.48,1.46,4.06,2.14,4.06,4.42s-1.63,3.67-3.94,3.67a10.48,10.48,0,0,1-3.07-.48h-.24v.48h-.86V143.6h.86v.29c0,1.65,1,3.41,2.74,3.41a1.48,1.48,0,0,0,1.68-1.54c0-1.18-.77-1.78-2.19-2.57-1.8-1-3-2-3-4.25a3.37,3.37,0,0,1,3.6-3.45,6.25,6.25,0,0,1,2.44.48h.24v-.48h.87v4.08Z"/><path class="cls-2" d="M212.58,135.73h2.3v1h-2.3v8.59c0,.77.24,1.25.81,1.25s1-.58,1.44-1.15l.39.81c-.58.67-1.61,2-3.17,2s-2.45-.77-2.45-2.74v-8.78h-1.49l-.24-.24,4.47-3.36h.24Z"/><path class="cls-2" d="M221.26,148.21c-3.12,0-5-2.45-5-6,0-3,1.73-6.72,5.33-6.72,2.11,0,4.56,1,4.56,4.8H218.6c0,.21,0,.43,0,.67,0,2.64,1.29,4.32,3.55,4.32a3.56,3.56,0,0,0,3.6-2.45l.57.34C226.11,144.9,224.91,148.21,221.26,148.21Zm-3.36-17.43,3-1.29,3.93,4.7-.57.34Zm.8,8.62,3.86-.12.24-.24c0-1.44-.34-2.5-1.63-2.5C220.11,136.54,219.06,137.41,218.7,139.4Z"/><path class="cls-2" d="M229.71,137.72l-.24-.24-1.3.55-.38-.81,4.68-1.73.24.24-.17,1.82h.24a4.74,4.74,0,0,1,3.41-2.06,2.81,2.81,0,0,1,2.91,2.06h.26a4.74,4.74,0,0,1,3.41-2.06c1.77,0,3.07,1.1,3.07,3.36v8.06l.24.24h1.49V148h-5.95v-.82h1l.24-.24v-7.68c0-1.25-.57-1.77-1.53-1.77a2.75,2.75,0,0,0-2.07,1.39v8.06l.24.24h1V148H235v-.82h1l.24-.24v-7.68c0-1.25-.58-1.77-1.54-1.77a2.74,2.74,0,0,0-2.06,1.39v8.06l.24.24h1V148h-6.1v-.82h1.63l.24-.24Z"/><path class="cls-2" d="M250.49,137.74l-.24-.24-1.29.58-.38-.82,4.65-1.77.24.24v11.18l.24.24h1.49V148h-6.58v-.82h1.63l.24-.24ZM250.3,130h3.32v3.31H250.3Z"/><path class="cls-2" d="M266.43,139l-.24.24-3,.29-.48-1.82a1.22,1.22,0,0,0-1.3-1c-1.15,0-2.59,1.32-2.59,4.15s1.29,4.42,3.55,4.42a3.55,3.55,0,0,0,3.6-2.45l.58.34c-.19,1.73-1.39,5-5,5-3.27,0-5-2.45-5-6,0-3.17,1.72-6.72,5.33-6.72C264.73,135.49,266.1,137.12,266.43,139Z"/><path class="cls-2" d="M121.65,157.74l-1.29.58-.39-.82,4.66-1.77.24.24v16l.24.24,1.3-.56.38.82-4.68,1.73-.24-.24.17-1.83h-.24a4.09,4.09,0,0,1-3.31,2.07c-2.74,0-4.18-2.35-4.18-5.91,0-4.22,2.54-6.81,5.33-6.81a4.57,4.57,0,0,1,2.25.55V158Zm-2.11,4.9c-1.49,0-2,1.68-2,3.94,0,2.88.71,5.66,2.59,5.66a1.91,1.91,0,0,0,1.77-1.34v-4.61C121.89,164.18,121.08,162.64,119.54,162.64Z"/><path class="cls-2" d="M133.08,174.21c-3.12,0-5-2.45-5-6,0-3,1.72-6.72,5.33-6.72,2.11,0,4.56,1,4.56,4.8h-7.52c0,.21,0,.43,0,.67,0,2.64,1.29,4.32,3.55,4.32a3.55,3.55,0,0,0,3.6-2.45l.58.34C137.93,170.9,136.73,174.21,133.08,174.21Zm-2.57-8.81,3.86-.12.24-.24c0-1.44-.33-2.5-1.63-2.5C131.92,162.54,130.87,163.41,130.51,165.4Z"/><path class="cls-2" d="M147.76,162.69h-1.92v-1h1.92c1.44-2.93,2.79-5.81,5.14-5.91l2.11-.09.24.24-.38,2.35h-3c-1.2,0-1.58.53-1.44,1.49l.29,1.92H154v1h-3.26v10.22l.24.24h2V174h-7.16v-.82h1.68l.24-.24Z"/><path class="cls-2" d="M159.38,174.21c-3.12,0-5-2.45-5-6,0-3,1.73-6.72,5.33-6.72,2.11,0,4.56,1,4.56,4.8h-7.51a4.79,4.79,0,0,0,0,.67c0,2.64,1.3,4.32,3.55,4.32a3.57,3.57,0,0,0,3.61-2.45l.57.34C164.23,170.9,163,174.21,159.38,174.21Zm-2.57-8.81,3.87-.12.24-.24c0-1.44-.34-2.5-1.63-2.5C158.23,162.54,157.17,163.41,156.81,165.4Z"/><path class="cls-2" d="M167.83,163.74l-.24-.24-1.3.58-.38-.82,4.65-1.77.24.24-.47,2.73h.47c.34-1.39,1.25-2.78,2.55-2.88l1.25-.09.24.24-.39,2.59H173.2c-1.48,0-2.11.29-2.4,1.49v7.1l.24.24h1.78V174H166v-.82h1.63l.24-.24Z"/><path class="cls-2" d="M183.52,163.72l-.24-.24L182,164l-.39-.81,4.68-1.73.24.24-.16,1.82h.24a4.18,4.18,0,0,1,3.55-2.06c2.49,0,3.93,2.59,3.93,6.14,0,4.23-2.54,6.58-5.32,6.58a4.64,4.64,0,0,1-2.26-.55v5.25l.24.24h2V180h-7.06v-.82h1.63l.24-.24Zm5.33,9.34c1.49,0,2-1.68,2-3.94,0-2.88-.72-5.66-2.59-5.66a1.9,1.9,0,0,0-1.78,1.34v4.61C186.5,171.52,187.32,173.06,188.85,173.06Z"/><path class="cls-2" d="M200.66,162.54a1.1,1.1,0,0,0-1.15.87l-.39,1.34-3,.29-.24-.24c.31-1.9,2.18-3.31,5-3.31,2.43,0,4.18.91,4,3.36l-.33,6.14c-.05.91.19,1.3.72,1.3a2.07,2.07,0,0,0,1.25-.67l.28.76c-1.24,1.23-1.94,1.83-3.14,1.83a1.58,1.58,0,0,1-1.8-1.78v-.29h-.24a3.42,3.42,0,0,1-3,2.07,2.56,2.56,0,0,1-2.79-2.64c0-2.64,2.64-3.6,5.95-5v-1.92C201.76,163.17,201.62,162.54,200.66,162.54Zm.86,5c-1.75,1-3,2.11-3,3.26,0,.87.53,1.25,1.34,1.25s1.87-.77,1.87-1.3v-3Z"/></g></g></svg>