<svg xmlns="http://www.w3.org/2000/svg" viewBox="0 0 512 402"><defs><style>.cls-1{fill:#fff0d9;}.cls-2{font-size:24px;fill:#940731;font-family:HappyTimesattheIKOBNewGamePlusEdition-Bold, Happy Times at the IKOB New Game Plus Edition;font-weight:700;}.cls-3{letter-spacing:-0.02em;}.cls-4{letter-spacing:-0.04em;}.cls-5{letter-spacing:-0.02em;}.cls-6{letter-spacing:0em;}.cls-7{letter-spacing:0em;}</style></defs><title>Recurso 7</title><g id="Capa_2" data-name="Capa 2"><g id="Capa_1-2" data-name="Capa 1"><path class="cls-1" d="M0,0C6.52,13.49,26,21.54,26.87,35.44,29.18,74.3,51.69,112.79,91.36,145.7c37.23,30.9,89.05,56.85,120.64,89.42,26.84,27.66,38,59,66.7,86.15,9.58,9.05,21.63,17.82,38.83,23,17.54,5.23,38.47,6.1,58.63,6.86C452,353.93,436.12,399.15,512,402V0Z"/><text class="cls-2" transform="translate(74.94 42.24)">El pa és un p<tspan class="cls-3" x="139.51" y="0">r</tspan><tspan x="148.73" y="0">océs antisistèmi</tspan><tspan class="cls-4" x="318.88" y="0">c</tspan><tspan x="329.49" y="0">. El pa </tspan><tspan x="22.06" y="28.8">és anticapitalista i </tspan><tspan class="cls-3" x="221.01" y="28.8">r</tspan><tspan x="230.23" y="28.8">ev</tspan><tspan class="cls-5" x="253.89" y="28.8">o</tspan><tspan class="cls-6" x="266.76" y="28.8">lucionari. Si </tspan><tspan x="29.62" y="57.6">no saps com fer pa, aquest espai és </tspan><tspan x="51.19" y="86.4">per a tu. Si saps com fer pa, pe</tspan><tspan class="cls-3" x="376.51" y="86.4">r</tspan><tspan x="385.72" y="86.4">ò </tspan><tspan x="102.24" y="115.2">no entens el que v</tspan><tspan class="cls-3" x="295.63" y="115.2">o</tspan><tspan x="308.49" y="115.2">l dir que </tspan><tspan x="116.69" y="144">si</tspan><tspan class="cls-3" x="134.3" y="144">g</tspan><tspan x="145.97" y="144">a antisistèmic, també és </tspan><tspan x="175.2" y="172.8">per a tu aquest espai.</tspan><tspan x="202.53" y="242.4">El pa és del p</tspan><tspan class="cls-3" x="347.08" y="242.4">ob</tspan><tspan class="cls-7" x="372.96" y="242.4">le.</tspan></text></g></g></svg>